<?xml version="1.0" standalone="no"?>
<!DOCTYPE svg PUBLIC "-//W3C//DTD SVG 20010904//EN"
 "http://www.w3.org/TR/2001/REC-SVG-20010904/DTD/svg10.dtd">
<svg version="1.0" xmlns="http://www.w3.org/2000/svg"
 width="100.000000pt" height="100.000000pt" viewBox="0 0 100.000000 100.000000"
 preserveAspectRatio="xMidYMid meet">

<g transform="translate(0.000000,100.000000) scale(0.100000,-0.100000)"
fill="#fab117" stroke="none">
<path d="M380 865 c-109 -35 -214 -143 -247 -254 -24 -83 -15 -202 22 -277 37
-75 104 -142 180 -180 55 -26 69 -29 165 -29 96 0 110 3 165 29 76 38 143 105
181 181 26 55 29 69 29 165 0 96 -3 110 -29 165 -38 76 -105 143 -181 180 -50
25 -73 30 -149 32 -59 2 -107 -2 -136 -12z m220 -21 c191 -57 298 -251 244
-443 -15 -55 -59 -131 -79 -138 -5 -1 -20 15 -33 37 -25 44 -73 85 -122 101
-31 11 -32 13 -15 25 56 42 73 139 35 202 -59 96 -201 96 -260 0 -38 -63 -21
-160 35 -202 17 -12 16 -14 -20 -26 -45 -15 -122 -88 -131 -125 -5 -21 -9 -24
-22 -13 -26 22 -60 83 -76 138 -80 269 175 524 444 444z m-39 -179 c66 -35 88
-123 46 -186 -27 -41 -60 -59 -107 -59 -47 0 -80 18 -107 59 -74 110 49 247
168 186z m57 -294 c43 -22 83 -63 105 -107 15 -29 15 -33 -1 -47 -35 -32 -134
-70 -196 -74 -88 -8 -185 22 -248 75 -16 14 -16 16 1 51 22 41 62 81 106 104
45 24 185 23 233 -2z"/>
</g>
</svg>
